<svg xmlns="http://www.w3.org/2000/svg" viewBox="0 0 512 512">
  <defs>
    <linearGradient id="zip" x1="0" y1="0" x2="0" y2="1">
      <stop offset="0" stop-color="#ff2ee6"/>
      <stop offset="0.55" stop-color="#00e5ff"/>
      <stop offset="1" stop-color="#a8ff3e"/>
    </linearGradient>
  </defs>
  <rect width="512" height="512" rx="112" fill="#0b0b10"/>
  <!-- ritssluiting: tanden -->
  <g fill="url(#zip)">
    <rect x="222" y="72" width="30" height="18" rx="5"/>
    <rect x="260" y="94" width="30" height="18" rx="5"/>
    <rect x="222" y="116" width="30" height="18" rx="5"/>
    <rect x="260" y="138" width="30" height="18" rx="5"/>
    <rect x="222" y="160" width="30" height="18" rx="5"/>
    <rect x="260" y="182" width="30" height="18" rx="5"/>
    <rect x="222" y="204" width="30" height="18" rx="5"/>
    <rect x="260" y="226" width="30" height="18" rx="5"/>
  </g>
  <!-- slider -->
  <path d="M216 268h80l-14 46a26 26 0 0 1-52 0z" fill="#f2f2f8"/>
  <rect x="236" y="256" width="40" height="20" rx="6" fill="#f2f2f8"/>
  <!-- trekker -->
  <rect x="244" y="330" width="24" height="64" rx="12" fill="none" stroke="#f2f2f8" stroke-width="14"/>
  <!-- gloed -->
  <ellipse cx="256" cy="160" rx="120" ry="140" fill="url(#zip)" opacity="0.12"/>
</svg>
